<?xml version="1.0" standalone="no"?>
<!DOCTYPE svg PUBLIC "-//W3C//DTD SVG 20010904//EN"
 "http://www.w3.org/TR/2001/REC-SVG-20010904/DTD/svg10.dtd">
<svg version="1.0" xmlns="http://www.w3.org/2000/svg"
 width="344.000000pt" height="344.000000pt" viewBox="0 0 344.000000 344.000000"
 preserveAspectRatio="xMidYMid meet">
<metadata>
Created by potrace 1.14, written by Peter Selinger 2001-2017
</metadata>
<g transform="translate(0.000000,344.000000) scale(0.100000,-0.100000)"
fill="#000000" stroke="none">
<path d="M1161 2829 c-19 -26 -20 -30 -6 -63 9 -20 22 -36 30 -36 8 0 15 -5
15 -11 0 -6 7 -9 15 -5 10 4 24 -8 41 -36 31 -49 94 -111 149 -146 22 -15 42
-28 44 -29 3 -2 -11 -20 -31 -41 -73 -77 -95 -127 -71 -161 16 -24 50 -27 77
-6 19 15 19 15 -1 15 -12 0 -24 4 -27 9 -9 13 9 52 36 81 13 14 70 79 127 145
57 66 109 123 116 128 21 12 47 -4 42 -25 -5 -16 -3 -17 9 -7 8 6 14 27 14 45
0 28 -5 36 -26 44 -35 14 -58 0 -124 -71 l-55 -59 -67 64 c-37 35 -92 76 -122
91 -39 19 -56 33 -56 46 0 11 -7 19 -15 19 -8 0 -15 7 -15 15 0 8 -8 16 -17
16 -10 1 -28 3 -40 4 -14 1 -29 -8 -42 -26z"/>
<path d="M1978 2750 c52 -32 135 -123 164 -181 73 -142 76 -315 11 -448 l-19
-38 66 -71 67 -71 16 37 c69 159 60 365 -25 523 -51 95 -156 197 -255 248 -53
27 -69 27 -25 1z"/>
<path d="M1540 2503 l-41 -48 38 -34 c59 -52 419 -341 508 -407 133 -99 232
-160 242 -150 6 5 4 8 -64 86 -81 92 -312 316 -505 490 -110 99 -123 110 -130
110 -3 0 -25 -21 -48 -47z m130 -93 c51 -47 118 -109 149 -139 l56 -53 -50 38
c-27 22 -55 44 -61 49 -6 6 -28 24 -49 40 -35 27 -165 133 -174 140 -1 2 0 9
4 14 9 16 21 7 125 -89z"/>
<path d="M1187 2487 c-25 -39 -55 -110 -71 -172 -33 -128 -6 -339 55 -427 11
-14 19 -31 19 -36 0 -10 130 -146 165 -172 44 -33 170 -83 238 -94 232 -39
442 48 598 248 19 24 20 30 7 37 -8 4 -42 28 -76 54 -34 25 -63 45 -65 45 -1
0 -24 -20 -50 -44 -160 -146 -391 -176 -587 -76 -25 13 -75 53 -111 89 -70 70
-119 157 -139 247 -20 88 -6 238 29 302 15 29 7 28 -12 -1z"/>
<path d="M1385 1388 c-44 -10 -90 -48 -103 -87 -14 -42 -8 -621 7 -651 41 -83
183 -100 251 -30 37 38 42 73 38 304 l-3 188 -78 0 c-43 0 -80 -2 -82 -3 -2
-2 -5 -25 -7 -51 -5 -50 -5 -49 42 -52 12 -1 15 -26 18 -150 3 -154 -2 -176
-39 -176 -9 0 -25 7 -33 16 -14 13 -16 53 -16 287 0 150 4 277 8 283 11 17 35
22 60 13 17 -7 22 -16 22 -47 l0 -38 53 1 52 0 3 43 c3 46 -25 109 -58 130
-32 20 -93 29 -135 20z"/>
<path d="M3036 1377 c-62 -34 -80 -75 -82 -180 l-1 -88 73 -102 c40 -56 77
-106 81 -112 35 -41 43 -63 43 -122 0 -52 -3 -64 -22 -77 -19 -13 -25 -14 -43
-2 -16 10 -20 25 -22 67 0 30 -1 62 -2 72 -1 14 -11 17 -55 17 l-53 0 2 -77
c2 -90 12 -118 51 -154 39 -36 80 -48 127 -37 91 20 127 79 127 205 l0 81 -59
83 c-33 46 -63 89 -68 94 -58 73 -71 102 -71 159 1 49 5 60 24 72 17 12 27 13
43 4 18 -9 21 -20 21 -84 l0 -74 53 2 52 2 3 65 c2 36 -3 82 -10 103 -29 86
-134 127 -212 83z"/>
<path d="M242 1358 c-18 -11 -42 -38 -52 -59 -19 -36 -20 -57 -17 -328 2 -275
3 -291 23 -317 38 -52 71 -69 129 -68 61 2 93 21 124 75 20 35 21 52 21 320 0
317 -3 332 -69 376 -43 29 -113 30 -159 1z m103 -92 c19 -13 20 -29 20 -282 0
-280 -2 -294 -44 -294 -39 0 -41 15 -41 291 0 230 2 270 16 283 19 20 25 20
49 2z"/>
<path d="M529 1331 c0 -25 0 -176 0 -335 0 -262 2 -292 19 -325 48 -93 173
-117 250 -47 55 50 56 54 57 418 l1 336 -53 0 -53 -1 0 -319 c0 -175 0 -321
-1 -325 -2 -19 -35 -43 -59 -43 -54 0 -55 6 -56 349 -1 174 -2 321 -3 327 -1
8 -20 12 -51 11 l-50 0 -1 -46z"/>
<path d="M910 979 l0 -400 53 3 52 3 2 45 c1 25 2 62 2 83 1 59 21 41 55 -51
l31 -82 52 0 c35 0 53 4 53 12 0 7 -14 49 -31 94 l-31 83 23 23 c13 13 26 30
29 38 3 8 6 113 8 233 3 206 2 220 -18 252 -31 50 -70 64 -183 64 l-97 0 0
-400z m182 283 c11 -9 14 -52 13 -201 0 -105 -3 -193 -7 -196 -3 -3 -22 -7
-42 -9 -42 -4 -38 -28 -38 209 1 233 -3 212 31 210 16 -1 36 -6 43 -13z"/>
<path d="M1746 1353 c-5 -24 -32 -196 -50 -323 -7 -49 -15 -100 -20 -130 -2
-14 -9 -61 -16 -105 -6 -44 -16 -104 -21 -134 -13 -78 -14 -76 41 -78 58 -2
57 -5 75 142 3 28 8 59 10 70 2 11 4 30 4 43 1 20 6 22 55 22 30 0 57 -3 59
-7 3 -5 13 -64 22 -133 10 -69 19 -127 22 -130 6 -6 103 -8 103 -1 0 8 -24
149 -45 266 -9 50 -18 104 -21 120 -6 39 -23 134 -29 165 -3 13 -7 40 -11 60
-3 19 -11 67 -17 105 l-12 70 -72 3 c-71 3 -71 3 -77 -25z m106 -261 c9 -64
14 -119 12 -122 -3 -2 -21 -5 -40 -5 l-36 -1 8 60 c4 34 8 68 9 76 13 92 19
120 24 115 3 -4 13 -59 23 -123z"/>
<path d="M2070 986 c0 -306 3 -395 13 -398 6 -3 30 -4 52 -4 l40 1 0 288 c0
158 3 287 8 287 4 0 7 -8 8 -17 1 -28 34 -253 45 -308 3 -11 7 -38 9 -60 3
-22 11 -74 18 -115 l13 -75 47 -1 c26 -1 49 2 51 5 4 6 14 60 22 121 2 19 13
88 24 153 11 65 22 137 25 160 6 47 25 147 29 147 1 0 2 -129 1 -286 0 -157 2
-289 5 -292 3 -4 26 -8 53 -8 l47 -1 0 398 0 399 -89 0 c-50 0 -93 -4 -96 -10
-3 -5 -7 -24 -9 -42 -3 -32 -12 -90 -23 -153 -3 -16 -6 -41 -8 -55 -5 -47 -27
-171 -30 -168 -3 2 -20 112 -51 331 -3 21 -7 46 -9 55 -2 9 -4 23 -4 30 -1 9
-27 12 -96 12 l-95 0 0 -394z"/>
<path d="M2639 1363 c-7 -118 -2 -766 6 -771 6 -4 65 -7 133 -7 l122 -1 0 53
0 52 -77 3 -78 3 -1 153 c0 102 3 152 10 153 6 1 40 2 76 3 l65 1 1 53 1 52
-77 0 -78 0 0 68 c0 101 -3 97 83 96 l75 0 0 53 0 53 -130 0 c-117 0 -130 -2
-131 -17z"/>
</g>
</svg>
